<?xml version="1.0" standalone="no"?>
<!DOCTYPE svg PUBLIC "-//W3C//DTD SVG 20010904//EN"
 "http://www.w3.org/TR/2001/REC-SVG-20010904/DTD/svg10.dtd">
<svg version="1.0" xmlns="http://www.w3.org/2000/svg"
 width="96.000000pt" height="96.000000pt" viewBox="0 0 96.000000 96.000000"
 preserveAspectRatio="xMidYMid meet">
<metadata>
Created by potrace 1.14, written by Peter Selinger 2001-2017
</metadata>
<g transform="translate(0.000000,96.000000) scale(0.100000,-0.100000)"
fill="#000000" stroke="none">
<path d="M145 814 l-25 -27 0 -299 c0 -322 4 -349 52 -362 13 -3 84 -6 159 -6
l137 0 -13 38 -13 37 -121 3 -121 3 0 159 0 160 283 0 c209 -1 292 -4 320 -14
l37 -14 0 140 c0 151 -10 190 -52 202 -13 3 -157 6 -321 6 l-298 0 -24 -26z
m615 -134 l0 -80 -280 0 -280 0 0 80 0 80 280 0 280 0 0 -80z"/>
<path d="M250 705 c-17 -21 2 -65 29 -65 30 0 46 26 33 55 -13 28 -43 33 -62
10z"/>
<path d="M370 705 c-17 -21 2 -65 29 -65 30 0 46 26 33 55 -13 28 -43 33 -62
10z"/>
<path d="M520 680 l0 -40 80 0 80 0 0 40 0 40 -80 0 -80 0 0 -40z"/>
<path d="M630 417 c-25 -13 -58 -43 -75 -66 -26 -37 -30 -51 -30 -109 0 -80
20 -120 81 -164 51 -37 121 -46 184 -24 l45 15 35 -34 36 -35 27 27 27 27 -35
36 c-34 35 -34 35 -20 75 26 75 15 144 -34 207 -30 38 -77 59 -141 64 -44 4
-64 0 -100 -19z m145 -73 c35 -16 65 -65 65 -104 0 -60 -60 -120 -120 -120
-60 0 -120 60 -120 120 0 38 30 88 63 104 41 20 71 20 112 0z"/>
</g>
</svg>
